<svg width="160" height="34" viewBox="0 0 160 34" fill="none" xmlns="http://www.w3.org/2000/svg">
<path d="M19.7051 25.5273C19.3887 28.2344 18.3867 30.3262 16.6992 31.8027C15.0234 33.2676 12.791 34 10.002 34C6.97852 34 4.55273 32.916 2.72461 30.748C0.908203 28.5801 0 25.6797 0 22.0469V19.5859C0 17.207 0.421875 15.1152 1.26562 13.3105C2.12109 11.5059 3.32812 10.123 4.88672 9.16211C6.44531 8.18945 8.25 7.70312 10.3008 7.70312C13.0195 7.70312 15.1992 8.46484 16.8398 9.98828C18.4805 11.5 19.4355 13.5977 19.7051 16.2812H16.3125C16.0195 14.2422 15.3809 12.7656 14.3965 11.8516C13.4238 10.9375 12.0586 10.4805 10.3008 10.4805C8.14453 10.4805 6.45117 11.2773 5.2207 12.8711C4.00195 14.4648 3.39258 16.7324 3.39258 19.6738V22.1523C3.39258 24.9297 3.97266 27.1387 5.13281 28.7793C6.29297 30.4199 7.91602 31.2402 10.002 31.2402C11.877 31.2402 13.3125 30.8184 14.3086 29.9746C15.3164 29.1191 15.9844 27.6367 16.3125 25.5273H19.7051Z" fill="white"/>
<path d="M27.3516 33.6484H24.0996V14.6289H27.3516V33.6484ZM23.8359 9.58398C23.8359 9.05664 23.9941 8.61133 24.3105 8.24805C24.6387 7.88477 25.1191 7.70312 25.752 7.70312C26.3848 7.70312 26.8652 7.88477 27.1934 8.24805C27.5215 8.61133 27.6855 9.05664 27.6855 9.58398C27.6855 10.1113 27.5215 10.5508 27.1934 10.9023C26.8652 11.2539 26.3848 11.4297 25.752 11.4297C25.1191 11.4297 24.6387 11.2539 24.3105 10.9023C23.9941 10.5508 23.8359 10.1113 23.8359 9.58398Z" fill="white"/>
<path d="M35.6484 14.6289L35.7539 17.0195C37.207 15.1914 39.1055 14.2773 41.4492 14.2773C45.4688 14.2773 47.4961 16.5449 47.5312 21.0801V33.6484H44.2793V21.0625C44.2676 19.6914 43.9512 18.6777 43.3301 18.0215C42.7207 17.3652 41.7656 17.0371 40.4648 17.0371C39.4102 17.0371 38.4844 17.3184 37.6875 17.8809C36.8906 18.4434 36.2695 19.1816 35.8242 20.0957V33.6484H32.5723V14.6289H35.6484Z" fill="white"/>
<path d="M60.3281 34C57.75 34 55.6523 33.1562 54.0352 31.4688C52.418 29.7695 51.6094 27.502 51.6094 24.666V24.0684C51.6094 22.1816 51.9668 20.5 52.6816 19.0234C53.4082 17.5352 54.416 16.375 55.7051 15.543C57.0059 14.6992 58.4121 14.2773 59.9238 14.2773C62.3965 14.2773 64.3184 15.0918 65.6895 16.7207C67.0605 18.3496 67.7461 20.6816 67.7461 23.7168V25.0703H54.8613C54.9082 26.9453 55.4531 28.4629 56.4961 29.623C57.5508 30.7715 58.8867 31.3457 60.5039 31.3457C61.6523 31.3457 62.625 31.1113 63.4219 30.6426C64.2188 30.1738 64.916 29.5527 65.5137 28.7793L67.5 30.3262C65.9062 32.7754 63.5156 34 60.3281 34ZM59.9238 16.9492C58.6113 16.9492 57.5098 17.4297 56.6191 18.3906C55.7285 19.3398 55.1777 20.6758 54.9668 22.3984H64.4941V22.1523C64.4004 20.5 63.9551 19.2227 63.1582 18.3203C62.3613 17.4062 61.2832 16.9492 59.9238 16.9492Z" fill="white"/>
<path d="M74.584 14.6289L74.6719 16.7383C76.0664 15.0977 77.9473 14.2773 80.3145 14.2773C82.9746 14.2773 84.7852 15.2969 85.7461 17.3359C86.3789 16.4219 87.1992 15.6836 88.207 15.1211C89.2266 14.5586 90.4277 14.2773 91.8105 14.2773C95.9824 14.2773 98.1035 16.4863 98.1738 20.9043V33.6484H94.9219V21.0977C94.9219 19.7383 94.6113 18.7246 93.9902 18.0566C93.3691 17.377 92.3262 17.0371 90.8613 17.0371C89.6543 17.0371 88.6523 17.4004 87.8555 18.127C87.0586 18.8418 86.5957 19.8086 86.4668 21.0273V33.6484H83.1973V21.1855C83.1973 18.4199 81.8438 17.0371 79.1367 17.0371C77.0039 17.0371 75.5449 17.9453 74.7598 19.7617V33.6484H71.5078V14.6289H74.584Z" fill="white"/>
<path d="M114.838 33.6484C114.65 33.2734 114.498 32.6055 114.381 31.6445C112.869 33.2148 111.064 34 108.967 34C107.092 34 105.551 33.4727 104.344 32.418C103.148 31.3516 102.551 30.0039 102.551 28.375C102.551 26.3945 103.301 24.8594 104.801 23.7695C106.312 22.668 108.434 22.1172 111.164 22.1172H114.328V20.623C114.328 19.4863 113.988 18.584 113.309 17.916C112.629 17.2363 111.627 16.8965 110.303 16.8965C109.143 16.8965 108.17 17.1895 107.385 17.7754C106.6 18.3613 106.207 19.0703 106.207 19.9023H102.938C102.938 18.9531 103.271 18.0391 103.939 17.1602C104.619 16.2695 105.533 15.5664 106.682 15.0508C107.842 14.5352 109.113 14.2773 110.496 14.2773C112.688 14.2773 114.404 14.8281 115.646 15.9297C116.889 17.0195 117.533 18.5254 117.58 20.4473V29.2012C117.58 30.9473 117.803 32.3359 118.248 33.3672V33.6484H114.838ZM109.441 31.1699C110.461 31.1699 111.428 30.9062 112.342 30.3789C113.256 29.8516 113.918 29.166 114.328 28.3223V24.4199H111.779C107.795 24.4199 105.803 25.5859 105.803 27.918C105.803 28.9375 106.143 29.7344 106.822 30.3086C107.502 30.8828 108.375 31.1699 109.441 31.1699Z" fill="white"/>
<path d="M128.027 5.19727H126.023V8.64844H124.893V0.117188H127.717C128.678 0.117188 129.416 0.335938 129.932 0.773438C130.451 1.21094 130.711 1.84766 130.711 2.68359C130.711 3.21484 130.566 3.67773 130.277 4.07227C129.992 4.4668 129.594 4.76172 129.082 4.95703L131.086 8.57812V8.64844H129.879L128.027 5.19727ZM126.023 4.27734H127.752C128.311 4.27734 128.754 4.13281 129.082 3.84375C129.414 3.55469 129.58 3.16797 129.58 2.68359C129.58 2.15625 129.422 1.75195 129.105 1.4707C128.793 1.18945 128.34 1.04688 127.746 1.04297H126.023V4.27734Z" fill="white"/>
<path d="M136.037 8.02148C135.615 8.51758 134.996 8.76562 134.18 8.76562C133.504 8.76562 132.988 8.57031 132.633 8.17969C132.281 7.78516 132.104 7.20312 132.1 6.43359V2.30859H133.184V6.4043C133.184 7.36523 133.574 7.8457 134.355 7.8457C135.184 7.8457 135.734 7.53711 136.008 6.91992V2.30859H137.092V8.64844H136.061L136.037 8.02148Z" fill="white"/>
<path d="M142.436 6.9668C142.436 6.67383 142.324 6.44727 142.102 6.28711C141.883 6.12305 141.498 5.98242 140.947 5.86523C140.4 5.74805 139.965 5.60742 139.641 5.44336C139.32 5.2793 139.082 5.08398 138.926 4.85742C138.773 4.63086 138.697 4.36133 138.697 4.04883C138.697 3.5293 138.916 3.08984 139.354 2.73047C139.795 2.37109 140.357 2.19141 141.041 2.19141C141.76 2.19141 142.342 2.37695 142.787 2.74805C143.236 3.11914 143.461 3.59375 143.461 4.17188H142.371C142.371 3.875 142.244 3.61914 141.99 3.4043C141.74 3.18945 141.424 3.08203 141.041 3.08203C140.646 3.08203 140.338 3.16797 140.115 3.33984C139.893 3.51172 139.781 3.73633 139.781 4.01367C139.781 4.27539 139.885 4.47266 140.092 4.60547C140.299 4.73828 140.672 4.86523 141.211 4.98633C141.754 5.10742 142.193 5.25195 142.529 5.41992C142.865 5.58789 143.113 5.79102 143.273 6.0293C143.438 6.26367 143.52 6.55078 143.52 6.89062C143.52 7.45703 143.293 7.91211 142.84 8.25586C142.387 8.5957 141.799 8.76562 141.076 8.76562C140.568 8.76562 140.119 8.67578 139.729 8.49609C139.338 8.31641 139.031 8.06641 138.809 7.74609C138.59 7.42188 138.48 7.07227 138.48 6.69727H139.564C139.584 7.06055 139.729 7.34961 139.998 7.56445C140.271 7.77539 140.631 7.88086 141.076 7.88086C141.486 7.88086 141.814 7.79883 142.061 7.63477C142.311 7.4668 142.436 7.24414 142.436 6.9668Z" fill="white"/>
<path d="M148.623 6.9668C148.623 6.67383 148.512 6.44727 148.289 6.28711C148.07 6.12305 147.686 5.98242 147.135 5.86523C146.588 5.74805 146.152 5.60742 145.828 5.44336C145.508 5.2793 145.27 5.08398 145.113 4.85742C144.961 4.63086 144.885 4.36133 144.885 4.04883C144.885 3.5293 145.104 3.08984 145.541 2.73047C145.982 2.37109 146.545 2.19141 147.229 2.19141C147.947 2.19141 148.529 2.37695 148.975 2.74805C149.424 3.11914 149.648 3.59375 149.648 4.17188H148.559C148.559 3.875 148.432 3.61914 148.178 3.4043C147.928 3.18945 147.611 3.08203 147.229 3.08203C146.834 3.08203 146.525 3.16797 146.303 3.33984C146.08 3.51172 145.969 3.73633 145.969 4.01367C145.969 4.27539 146.072 4.47266 146.279 4.60547C146.486 4.73828 146.859 4.86523 147.398 4.98633C147.941 5.10742 148.381 5.25195 148.717 5.41992C149.053 5.58789 149.301 5.79102 149.461 6.0293C149.625 6.26367 149.707 6.55078 149.707 6.89062C149.707 7.45703 149.48 7.91211 149.027 8.25586C148.574 8.5957 147.986 8.76562 147.264 8.76562C146.756 8.76562 146.307 8.67578 145.916 8.49609C145.525 8.31641 145.219 8.06641 144.996 7.74609C144.777 7.42188 144.668 7.07227 144.668 6.69727H145.752C145.771 7.06055 145.916 7.34961 146.186 7.56445C146.459 7.77539 146.818 7.88086 147.264 7.88086C147.674 7.88086 148.002 7.79883 148.248 7.63477C148.498 7.4668 148.623 7.24414 148.623 6.9668Z" fill="white"/>
<path d="M152.297 8.64844H151.213V2.30859H152.297V8.64844ZM151.125 0.626953C151.125 0.451172 151.178 0.302734 151.283 0.181641C151.393 0.0605469 151.553 0 151.764 0C151.975 0 152.135 0.0605469 152.244 0.181641C152.354 0.302734 152.408 0.451172 152.408 0.626953C152.408 0.802734 152.354 0.949219 152.244 1.06641C152.135 1.18359 151.975 1.24219 151.764 1.24219C151.553 1.24219 151.393 1.18359 151.283 1.06641C151.178 0.949219 151.125 0.802734 151.125 0.626953Z" fill="white"/>
<path d="M157.951 8.64844C157.889 8.52344 157.838 8.30078 157.799 7.98047C157.295 8.50391 156.693 8.76562 155.994 8.76562C155.369 8.76562 154.855 8.58984 154.453 8.23828C154.055 7.88281 153.855 7.43359 153.855 6.89062C153.855 6.23047 154.105 5.71875 154.605 5.35547C155.109 4.98828 155.816 4.80469 156.727 4.80469H157.781V4.30664C157.781 3.92773 157.668 3.62695 157.441 3.4043C157.215 3.17773 156.881 3.06445 156.439 3.06445C156.053 3.06445 155.729 3.16211 155.467 3.35742C155.205 3.55273 155.074 3.78906 155.074 4.06641H153.984C153.984 3.75 154.096 3.44531 154.318 3.15234C154.545 2.85547 154.85 2.62109 155.232 2.44922C155.619 2.27734 156.043 2.19141 156.504 2.19141C157.234 2.19141 157.807 2.375 158.221 2.74219C158.635 3.10547 158.85 3.60742 158.865 4.24805V7.16602C158.865 7.74805 158.939 8.21094 159.088 8.55469V8.64844H157.951ZM156.152 7.82227C156.492 7.82227 156.814 7.73438 157.119 7.55859C157.424 7.38281 157.645 7.1543 157.781 6.87305V5.57227H156.932C155.604 5.57227 154.939 5.96094 154.939 6.73828C154.939 7.07812 155.053 7.34375 155.279 7.53516C155.506 7.72656 155.797 7.82227 156.152 7.82227Z" fill="white"/>
</svg>
